<?xml version="1.0" encoding="UTF-8"?>
<svg xmlns="http://www.w3.org/2000/svg" xmlns:xlink="http://www.w3.org/1999/xlink" width="1920" height="1080" viewBox="0 0 1920 1080">
<defs>
<g>
<g id="glyph-0-0">
<path d="M 4.753906 -3.925781 L 4.492188 -3.925781 C 4.46875 -4.019531 4.429688 -4.125 4.367188 -4.25 C 4.308594 -4.375 4.242188 -4.496094 4.167969 -4.605469 C 4.09375 -4.722656 4.007812 -4.824219 3.917969 -4.910156 C 3.828125 -5 3.742188 -5.050781 3.660156 -5.0625 C 3.582031 -5.070312 3.480469 -5.078125 3.363281 -5.085938 C 3.242188 -5.089844 3.132812 -5.09375 3.03125 -5.09375 L 2.808594 -5.09375 L 2.808594 -0.78125 C 2.808594 -0.699219 2.828125 -0.621094 2.863281 -0.550781 C 2.898438 -0.484375 2.960938 -0.429688 3.050781 -0.390625 C 3.09375 -0.375 3.191406 -0.347656 3.335938 -0.320312 C 3.480469 -0.289062 3.59375 -0.273438 3.675781 -0.269531 L 3.675781 0 L 1.132812 0 L 1.132812 -0.269531 C 1.203125 -0.273438 1.3125 -0.285156 1.457031 -0.300781 C 1.601562 -0.316406 1.703125 -0.335938 1.757812 -0.355469 C 1.84375 -0.390625 1.902344 -0.4375 1.941406 -0.5 C 1.980469 -0.5625 2 -0.644531 2 -0.75 L 2 -5.09375 L 1.78125 -5.09375 C 1.703125 -5.09375 1.605469 -5.089844 1.488281 -5.085938 C 1.371094 -5.082031 1.261719 -5.074219 1.15625 -5.0625 C 1.070312 -5.050781 0.984375 -5.003906 0.894531 -4.910156 C 0.804688 -4.820312 0.722656 -4.71875 0.644531 -4.605469 C 0.570312 -4.492188 0.503906 -4.371094 0.445312 -4.242188 C 0.386719 -4.117188 0.34375 -4.011719 0.324219 -3.925781 L 0.0585938 -3.925781 L 0.0585938 -5.390625 L 4.753906 -5.390625 Z "/>
</g>
<g id="glyph-0-1">
<path d="M 3.601562 -0.882812 C 3.441406 -0.582031 3.234375 -0.34375 2.96875 -0.167969 C 2.707031 0.0117188 2.402344 0.0976562 2.0625 0.0976562 C 1.761719 0.0976562 1.496094 0.046875 1.269531 -0.0625 C 1.042969 -0.167969 0.855469 -0.3125 0.710938 -0.492188 C 0.5625 -0.675781 0.453125 -0.886719 0.382812 -1.132812 C 0.308594 -1.375 0.273438 -1.632812 0.273438 -1.902344 C 0.273438 -2.144531 0.3125 -2.382812 0.390625 -2.617188 C 0.464844 -2.851562 0.578125 -3.0625 0.730469 -3.25 C 0.875 -3.429688 1.050781 -3.574219 1.265625 -3.683594 C 1.480469 -3.796875 1.71875 -3.851562 1.984375 -3.851562 C 2.257812 -3.851562 2.492188 -3.808594 2.6875 -3.722656 C 2.882812 -3.636719 3.042969 -3.519531 3.164062 -3.367188 C 3.28125 -3.226562 3.367188 -3.058594 3.421875 -2.867188 C 3.480469 -2.675781 3.507812 -2.464844 3.507812 -2.242188 L 3.507812 -1.988281 L 1.027344 -1.988281 C 1.027344 -1.742188 1.050781 -1.519531 1.097656 -1.320312 C 1.144531 -1.121094 1.21875 -0.941406 1.320312 -0.789062 C 1.421875 -0.644531 1.550781 -0.527344 1.707031 -0.441406 C 1.867188 -0.359375 2.058594 -0.316406 2.277344 -0.316406 C 2.503906 -0.316406 2.699219 -0.367188 2.863281 -0.472656 C 3.023438 -0.578125 3.183594 -0.769531 3.335938 -1.042969 L 3.601562 -0.882812 M 2.761719 -2.308594 C 2.761719 -2.449219 2.75 -2.601562 2.726562 -2.761719 C 2.699219 -2.925781 2.660156 -3.058594 2.609375 -3.167969 C 2.550781 -3.285156 2.472656 -3.378906 2.371094 -3.453125 C 2.269531 -3.527344 2.136719 -3.5625 1.976562 -3.5625 C 1.710938 -3.5625 1.492188 -3.453125 1.316406 -3.230469 C 1.140625 -3.011719 1.042969 -2.703125 1.027344 -2.308594 Z "/>
</g>
<g id="glyph-0-2">
<path d="M 3.140625 -3.261719 C 3.140625 -3.132812 3.109375 -3.019531 3.046875 -2.917969 C 2.980469 -2.820312 2.886719 -2.769531 2.753906 -2.769531 C 2.613281 -2.769531 2.503906 -2.804688 2.429688 -2.878906 C 2.355469 -2.953125 2.316406 -3.03125 2.316406 -3.121094 C 2.316406 -3.175781 2.320312 -3.226562 2.328125 -3.273438 C 2.339844 -3.320312 2.347656 -3.363281 2.355469 -3.410156 C 2.234375 -3.410156 2.097656 -3.363281 1.9375 -3.265625 C 1.777344 -3.167969 1.640625 -3.03125 1.53125 -2.855469 L 1.53125 -0.675781 C 1.53125 -0.585938 1.546875 -0.515625 1.582031 -0.460938 C 1.617188 -0.402344 1.667969 -0.363281 1.742188 -0.335938 C 1.804688 -0.308594 1.886719 -0.289062 1.988281 -0.277344 C 2.089844 -0.265625 2.175781 -0.253906 2.25 -0.25 L 2.25 0 L 0.273438 0 L 0.273438 -0.25 C 0.332031 -0.253906 0.390625 -0.261719 0.453125 -0.265625 C 0.515625 -0.269531 0.570312 -0.28125 0.613281 -0.296875 C 0.6875 -0.320312 0.738281 -0.359375 0.773438 -0.414062 C 0.808594 -0.472656 0.824219 -0.546875 0.824219 -0.636719 L 0.824219 -2.949219 C 0.824219 -3.027344 0.804688 -3.101562 0.769531 -3.179688 C 0.730469 -3.253906 0.679688 -3.316406 0.613281 -3.359375 C 0.566406 -3.390625 0.511719 -3.414062 0.445312 -3.425781 C 0.378906 -3.441406 0.308594 -3.449219 0.230469 -3.457031 L 0.230469 -3.707031 L 1.476562 -3.789062 L 1.53125 -3.738281 L 1.53125 -3.207031 L 1.550781 -3.207031 C 1.707031 -3.414062 1.882812 -3.570312 2.074219 -3.675781 C 2.265625 -3.78125 2.441406 -3.835938 2.601562 -3.835938 C 2.761719 -3.835938 2.890625 -3.785156 2.992188 -3.679688 C 3.089844 -3.574219 3.140625 -3.4375 3.140625 -3.261719 Z "/>
</g>
<g id="glyph-0-3">
<path d="M 6.679688 0 L 4.855469 0 L 4.855469 -0.25 C 4.914062 -0.253906 4.972656 -0.261719 5.035156 -0.265625 C 5.09375 -0.269531 5.144531 -0.28125 5.191406 -0.296875 C 5.261719 -0.320312 5.316406 -0.359375 5.347656 -0.414062 C 5.382812 -0.472656 5.398438 -0.546875 5.398438 -0.636719 L 5.398438 -2.570312 C 5.398438 -2.835938 5.339844 -3.039062 5.21875 -3.179688 C 5.097656 -3.324219 4.949219 -3.394531 4.769531 -3.394531 C 4.644531 -3.394531 4.527344 -3.375 4.421875 -3.339844 C 4.3125 -3.300781 4.210938 -3.246094 4.121094 -3.179688 C 4.046875 -3.121094 3.984375 -3.0625 3.9375 -3 C 3.886719 -2.933594 3.847656 -2.878906 3.824219 -2.835938 L 3.824219 -0.675781 C 3.824219 -0.585938 3.839844 -0.515625 3.871094 -0.457031 C 3.898438 -0.402344 3.953125 -0.355469 4.023438 -0.328125 C 4.082031 -0.304688 4.136719 -0.285156 4.183594 -0.273438 C 4.230469 -0.265625 4.292969 -0.253906 4.367188 -0.25 L 4.367188 0 L 2.582031 0 L 2.582031 -0.25 C 2.640625 -0.253906 2.695312 -0.261719 2.75 -0.265625 C 2.804688 -0.269531 2.855469 -0.28125 2.902344 -0.296875 C 2.972656 -0.320312 3.023438 -0.359375 3.058594 -0.414062 C 3.09375 -0.472656 3.109375 -0.546875 3.109375 -0.636719 L 3.109375 -2.570312 C 3.109375 -2.835938 3.050781 -3.039062 2.929688 -3.179688 C 2.808594 -3.324219 2.660156 -3.394531 2.476562 -3.394531 C 2.355469 -3.394531 2.238281 -3.375 2.128906 -3.335938 C 2.019531 -3.296875 1.917969 -3.242188 1.828125 -3.175781 C 1.753906 -3.117188 1.691406 -3.054688 1.640625 -2.988281 C 1.589844 -2.917969 1.550781 -2.863281 1.527344 -2.828125 L 1.527344 -0.683594 C 1.527344 -0.597656 1.542969 -0.523438 1.578125 -0.46875 C 1.613281 -0.410156 1.667969 -0.363281 1.738281 -0.335938 C 1.792969 -0.308594 1.847656 -0.289062 1.902344 -0.277344 C 1.957031 -0.265625 2.019531 -0.253906 2.089844 -0.25 L 2.089844 0 L 0.269531 0 L 0.269531 -0.25 C 0.328125 -0.253906 0.386719 -0.261719 0.449219 -0.265625 C 0.511719 -0.269531 0.566406 -0.28125 0.613281 -0.296875 C 0.683594 -0.320312 0.734375 -0.359375 0.769531 -0.414062 C 0.804688 -0.472656 0.820312 -0.546875 0.820312 -0.636719 L 0.820312 -2.960938 C 0.820312 -3.042969 0.800781 -3.117188 0.765625 -3.179688 C 0.726562 -3.246094 0.675781 -3.300781 0.613281 -3.347656 C 0.5625 -3.375 0.503906 -3.402344 0.433594 -3.417969 C 0.363281 -3.4375 0.289062 -3.449219 0.210938 -3.457031 L 0.210938 -3.707031 L 1.464844 -3.789062 L 1.519531 -3.738281 L 1.519531 -3.203125 L 1.546875 -3.203125 C 1.609375 -3.265625 1.6875 -3.339844 1.777344 -3.425781 C 1.867188 -3.511719 1.953125 -3.582031 2.03125 -3.632812 C 2.121094 -3.695312 2.230469 -3.746094 2.363281 -3.785156 C 2.496094 -3.828125 2.640625 -3.847656 2.796875 -3.847656 C 3.039062 -3.847656 3.246094 -3.78125 3.421875 -3.652344 C 3.597656 -3.519531 3.722656 -3.363281 3.796875 -3.179688 C 3.886719 -3.265625 3.96875 -3.34375 4.039062 -3.410156 C 4.109375 -3.480469 4.199219 -3.550781 4.3125 -3.625 C 4.410156 -3.691406 4.523438 -3.746094 4.652344 -3.785156 C 4.78125 -3.828125 4.925781 -3.847656 5.085938 -3.847656 C 5.402344 -3.847656 5.652344 -3.742188 5.835938 -3.535156 C 6.023438 -3.328125 6.113281 -3.007812 6.113281 -2.578125 L 6.113281 -0.675781 C 6.113281 -0.585938 6.128906 -0.515625 6.160156 -0.457031 C 6.191406 -0.402344 6.242188 -0.355469 6.316406 -0.328125 C 6.375 -0.304688 6.429688 -0.285156 6.488281 -0.273438 C 6.546875 -0.265625 6.609375 -0.253906 6.679688 -0.25 Z "/>
</g>
<g id="glyph-0-4">
</g>
<g id="glyph-0-5">
<path d="M 3.070312 0 L 0.511719 0 L 0.511719 -0.269531 C 0.589844 -0.273438 0.707031 -0.285156 0.867188 -0.300781 C 1.027344 -0.320312 1.140625 -0.335938 1.199219 -0.351562 C 1.277344 -0.378906 1.339844 -0.417969 1.378906 -0.476562 C 1.421875 -0.535156 1.441406 -0.617188 1.441406 -0.734375 L 1.441406 -3.398438 L 0.496094 -3.398438 L 0.496094 -3.71875 L 0.707031 -3.71875 C 0.980469 -3.71875 1.226562 -3.769531 1.441406 -3.871094 C 1.65625 -3.972656 1.8125 -4.078125 1.90625 -4.195312 L 2.222656 -4.195312 C 2.214844 -4.03125 2.207031 -3.839844 2.199219 -3.617188 C 2.191406 -3.398438 2.1875 -3.203125 2.1875 -3.027344 L 2.1875 -0.773438 C 2.1875 -0.6875 2.207031 -0.605469 2.246094 -0.539062 C 2.285156 -0.46875 2.34375 -0.417969 2.414062 -0.382812 C 2.480469 -0.355469 2.589844 -0.332031 2.738281 -0.308594 C 2.886719 -0.285156 3 -0.273438 3.070312 -0.269531 Z "/>
</g>
<g id="glyph-0-6">
<path d="M 1.734375 -3.242188 C 1.734375 -3.101562 1.683594 -2.980469 1.582031 -2.878906 C 1.480469 -2.777344 1.355469 -2.726562 1.214844 -2.726562 C 1.074219 -2.726562 0.953125 -2.777344 0.847656 -2.878906 C 0.746094 -2.980469 0.695312 -3.101562 0.695312 -3.242188 C 0.695312 -3.382812 0.746094 -3.503906 0.847656 -3.605469 C 0.949219 -3.707031 1.070312 -3.757812 1.214844 -3.757812 C 1.359375 -3.757812 1.480469 -3.707031 1.582031 -3.605469 C 1.683594 -3.503906 1.734375 -3.382812 1.734375 -3.242188 M 1.734375 -0.4375 C 1.734375 -0.296875 1.683594 -0.175781 1.582031 -0.0742188 C 1.480469 0.0273438 1.355469 0.0742188 1.214844 0.0742188 C 1.074219 0.0742188 0.953125 0.0273438 0.847656 -0.0742188 C 0.746094 -0.175781 0.695312 -0.296875 0.695312 -0.4375 C 0.695312 -0.578125 0.746094 -0.699219 0.847656 -0.804688 C 0.953125 -0.90625 1.074219 -0.957031 1.214844 -0.957031 C 1.355469 -0.957031 1.480469 -0.90625 1.582031 -0.804688 C 1.683594 -0.699219 1.734375 -0.578125 1.734375 -0.4375 Z "/>
</g>
<g id="glyph-0-7">
<path d="M 4.242188 -1.429688 C 4.242188 -1.003906 4.058594 -0.636719 3.691406 -0.332031 C 3.324219 -0.0234375 2.84375 0.128906 2.246094 0.128906 C 1.683594 0.128906 1.238281 -0.0117188 0.898438 -0.292969 C 0.5625 -0.574219 0.394531 -0.933594 0.394531 -1.378906 C 0.394531 -1.707031 0.496094 -1.976562 0.691406 -2.195312 C 0.890625 -2.414062 1.1875 -2.601562 1.574219 -2.753906 C 1.253906 -2.933594 1.015625 -3.128906 0.855469 -3.34375 C 0.695312 -3.5625 0.613281 -3.804688 0.613281 -4.074219 C 0.613281 -4.488281 0.789062 -4.832031 1.140625 -5.113281 C 1.492188 -5.390625 1.910156 -5.527344 2.398438 -5.527344 C 2.886719 -5.527344 3.285156 -5.398438 3.585938 -5.132812 C 3.890625 -4.871094 4.039062 -4.539062 4.039062 -4.144531 C 4.039062 -3.886719 3.957031 -3.644531 3.789062 -3.414062 C 3.621094 -3.1875 3.378906 -3 3.054688 -2.851562 C 3.472656 -2.671875 3.777344 -2.472656 3.960938 -2.253906 C 4.148438 -2.039062 4.242188 -1.761719 4.242188 -1.429688 M 3.324219 -4.183594 C 3.324219 -4.492188 3.230469 -4.746094 3.046875 -4.9375 C 2.863281 -5.132812 2.628906 -5.230469 2.34375 -5.230469 C 2.058594 -5.230469 1.824219 -5.136719 1.640625 -4.949219 C 1.457031 -4.765625 1.367188 -4.53125 1.367188 -4.257812 C 1.367188 -3.992188 1.472656 -3.765625 1.679688 -3.582031 C 1.886719 -3.394531 2.253906 -3.199219 2.789062 -2.988281 C 2.976562 -3.109375 3.113281 -3.269531 3.199219 -3.472656 C 3.28125 -3.671875 3.324219 -3.910156 3.324219 -4.183594 M 3.480469 -1.25 C 3.480469 -1.410156 3.449219 -1.546875 3.378906 -1.667969 C 3.3125 -1.789062 3.210938 -1.898438 3.082031 -1.996094 C 2.960938 -2.09375 2.785156 -2.195312 2.566406 -2.300781 C 2.34375 -2.40625 2.105469 -2.511719 1.84375 -2.621094 C 1.601562 -2.488281 1.425781 -2.320312 1.308594 -2.117188 C 1.195312 -1.914062 1.140625 -1.679688 1.140625 -1.421875 C 1.140625 -1.046875 1.25 -0.746094 1.46875 -0.519531 C 1.6875 -0.289062 1.976562 -0.175781 2.34375 -0.175781 C 2.691406 -0.175781 2.96875 -0.277344 3.175781 -0.476562 C 3.378906 -0.679688 3.480469 -0.9375 3.480469 -1.25 Z "/>
</g>
<g id="glyph-0-8">
<path d="M 1.847656 1.386719 C 1.613281 1.386719 1.394531 1.355469 1.195312 1.296875 C 1 1.238281 0.828125 1.15625 0.6875 1.054688 C 0.546875 0.953125 0.4375 0.839844 0.359375 0.707031 C 0.28125 0.574219 0.242188 0.4375 0.242188 0.300781 C 0.242188 0.175781 0.273438 0.0625 0.335938 -0.0351562 C 0.394531 -0.136719 0.492188 -0.1875 0.625 -0.1875 C 0.777344 -0.1875 0.894531 -0.148438 0.972656 -0.0742188 C 1.054688 0 1.09375 0.0859375 1.09375 0.183594 C 1.09375 0.261719 1.082031 0.367188 1.054688 0.488281 C 1.027344 0.613281 1.007812 0.703125 0.992188 0.753906 C 1.007812 0.777344 1.042969 0.808594 1.089844 0.847656 C 1.136719 0.886719 1.191406 0.917969 1.261719 0.949219 C 1.34375 0.988281 1.425781 1.019531 1.515625 1.039062 C 1.605469 1.0625 1.730469 1.074219 1.894531 1.074219 C 2.046875 1.074219 2.191406 1.050781 2.332031 1 C 2.472656 0.949219 2.597656 0.867188 2.703125 0.753906 C 2.816406 0.640625 2.902344 0.503906 2.964844 0.347656 C 3.027344 0.191406 3.058594 -0.0117188 3.058594 -0.265625 C 3.058594 -0.402344 3.042969 -0.539062 3.011719 -0.671875 C 2.984375 -0.804688 2.929688 -0.921875 2.851562 -1.023438 C 2.773438 -1.121094 2.664062 -1.195312 2.53125 -1.25 C 2.394531 -1.304688 2.222656 -1.332031 2.015625 -1.332031 L 1.515625 -1.332031 L 1.515625 -1.769531 L 1.847656 -1.769531 C 2.195312 -1.769531 2.449219 -1.867188 2.605469 -2.058594 C 2.757812 -2.25 2.835938 -2.539062 2.835938 -2.929688 C 2.835938 -3.246094 2.761719 -3.484375 2.613281 -3.644531 C 2.460938 -3.804688 2.25 -3.886719 1.976562 -3.886719 C 1.84375 -3.886719 1.734375 -3.867188 1.652344 -3.835938 C 1.566406 -3.804688 1.496094 -3.773438 1.445312 -3.746094 C 1.378906 -3.707031 1.328125 -3.667969 1.289062 -3.625 C 1.246094 -3.582031 1.214844 -3.550781 1.195312 -3.53125 C 1.214844 -3.449219 1.234375 -3.351562 1.261719 -3.234375 C 1.285156 -3.117188 1.296875 -3.003906 1.296875 -2.898438 C 1.296875 -2.804688 1.257812 -2.71875 1.179688 -2.644531 C 1.097656 -2.570312 0.980469 -2.53125 0.828125 -2.53125 C 0.695312 -2.53125 0.59375 -2.582031 0.535156 -2.675781 C 0.472656 -2.773438 0.441406 -2.886719 0.441406 -3.011719 C 0.441406 -3.144531 0.476562 -3.277344 0.550781 -3.414062 C 0.625 -3.550781 0.734375 -3.679688 0.878906 -3.796875 C 1.023438 -3.917969 1.199219 -4.011719 1.40625 -4.085938 C 1.613281 -4.160156 1.851562 -4.195312 2.121094 -4.195312 C 2.433594 -4.195312 2.691406 -4.148438 2.894531 -4.058594 C 3.097656 -3.964844 3.257812 -3.851562 3.375 -3.722656 C 3.488281 -3.59375 3.570312 -3.457031 3.613281 -3.316406 C 3.65625 -3.171875 3.675781 -3.050781 3.675781 -2.949219 C 3.675781 -2.824219 3.660156 -2.695312 3.621094 -2.570312 C 3.585938 -2.441406 3.527344 -2.324219 3.449219 -2.214844 C 3.359375 -2.09375 3.242188 -1.988281 3.097656 -1.890625 C 2.953125 -1.792969 2.769531 -1.710938 2.546875 -1.652344 L 2.546875 -1.589844 C 2.691406 -1.578125 2.839844 -1.546875 3 -1.496094 C 3.164062 -1.445312 3.308594 -1.371094 3.4375 -1.273438 C 3.570312 -1.167969 3.679688 -1.035156 3.765625 -0.871094 C 3.851562 -0.707031 3.894531 -0.5 3.894531 -0.25 C 3.894531 0.234375 3.703125 0.628906 3.3125 0.933594 C 2.921875 1.234375 2.433594 1.386719 1.847656 1.386719 Z "/>
</g>
</g>
</defs>
<g fill="rgb(0%, 100%, 100%)" fill-opacity="1">
<use xlink:href="#glyph-0-0" x="30" y="27.131836"/>
<use xlink:href="#glyph-0-1" x="35" y="27.131836"/>
<use xlink:href="#glyph-0-2" x="39" y="27.131836"/>
<use xlink:href="#glyph-0-3" x="42" y="27.131836"/>
<use xlink:href="#glyph-0-4" x="49" y="27.131836"/>
<use xlink:href="#glyph-0-5" x="51" y="27.131836"/>
<use xlink:href="#glyph-0-6" x="54" y="27.131836"/>
<use xlink:href="#glyph-0-4" x="56" y="27.131836"/>
<use xlink:href="#glyph-0-7" x="58" y="27.131836"/>
<use xlink:href="#glyph-0-8" x="63" y="27.131836"/>
</g>
</svg>
