<?xml version="1.0" encoding="UTF-8"?>
<svg xmlns="http://www.w3.org/2000/svg" xmlns:xlink="http://www.w3.org/1999/xlink" width="1920" height="1080" viewBox="0 0 1920 1080">
<defs>
<g>
<g id="glyph-0-0">
<path d="M 2.359375 -6.5 C 1.75 -6.5 1.125 -6.078125 0.734375 -5.390625 C 0.4375 -4.875 0.21875 -3.984375 0.21875 -3.203125 C 0.21875 -1.25 1.109375 0.125 2.375 0.125 C 3.59375 0.125 4.5 -1.28125 4.5 -3.1875 C 4.5 -5.0625 3.578125 -6.5 2.359375 -6.5 Z M 3 -2.09375 C 3 -1.53125 2.921875 -0.796875 2.84375 -0.546875 C 2.734375 -0.28125 2.578125 -0.140625 2.375 -0.140625 C 1.890625 -0.140625 1.71875 -0.6875 1.71875 -2.09375 L 1.71875 -4.25 C 1.71875 -5.6875 1.890625 -6.234375 2.34375 -6.234375 C 2.8125 -6.234375 3 -5.640625 3 -4.25 Z "/>
</g>
</g>
</defs>
<g fill="rgb(100%, 100%, 100%)" fill-opacity="1">
<use xlink:href="#glyph-0-0" x="30" y="26.384766"/>
</g>
</svg>
