<?xml version="1.0" encoding="UTF-8"?>
<svg xmlns="http://www.w3.org/2000/svg" xmlns:xlink="http://www.w3.org/1999/xlink" width="1920" height="1080" viewBox="0 0 1920 1080">
<defs>
<g>
<g id="glyph-0-0">
<path d="M 4.015625 -0.125 C 3.640625 -0.171875 3.546875 -0.25 3.546875 -0.5 L 3.546875 -3.0625 C 3.546875 -3.328125 3.65625 -3.421875 4.015625 -3.4375 L 4.015625 -3.5625 L 2.21875 -3.5625 L 2.21875 -3.4375 C 2.578125 -3.421875 2.671875 -3.34375 2.6875 -3.0625 L 2.6875 -1.96875 L 1.421875 -1.96875 L 1.421875 -3.0625 C 1.421875 -3.328125 1.53125 -3.421875 1.890625 -3.4375 L 1.890625 -3.5625 L 0.109375 -3.5625 L 0.109375 -3.4375 C 0.453125 -3.40625 0.546875 -3.328125 0.5625 -3.0625 L 0.5625 -0.5 C 0.546875 -0.25 0.46875 -0.171875 0.109375 -0.125 L 0.109375 0 L 1.890625 0 L 1.890625 -0.125 C 1.515625 -0.171875 1.421875 -0.234375 1.421875 -0.5 L 1.421875 -1.71875 L 2.6875 -1.71875 L 2.6875 -0.5 C 2.671875 -0.234375 2.59375 -0.171875 2.21875 -0.125 L 2.21875 0 L 4.015625 0 Z "/>
</g>
<g id="glyph-0-1">
<path d="M 2.84375 -0.234375 C 2.609375 -0.234375 2.546875 -0.3125 2.546875 -0.53125 L 2.546875 -2.4375 L 1.484375 -2.4375 L 1.484375 -2.3125 C 1.734375 -2.296875 1.796875 -2.234375 1.8125 -2 L 1.8125 -0.5 C 1.625 -0.328125 1.53125 -0.265625 1.375 -0.265625 C 1.15625 -0.265625 1.078125 -0.375 1.078125 -0.640625 L 1.078125 -2.4375 L 0.078125 -2.4375 L 0.078125 -2.3125 C 0.296875 -2.265625 0.34375 -2.21875 0.34375 -2 L 0.34375 -0.671875 C 0.34375 -0.203125 0.609375 0.078125 1.046875 0.078125 C 1.3125 0.078125 1.5 -0.015625 1.8125 -0.28125 L 1.8125 0.0625 C 2.03125 -0.015625 2.171875 -0.03125 2.515625 -0.0625 L 2.84375 -0.109375 Z "/>
</g>
<g id="glyph-0-2">
<path d="M 2.84375 -0.125 C 2.65625 -0.140625 2.578125 -0.21875 2.59375 -0.421875 L 2.59375 -1.75 C 2.59375 -2.203125 2.3125 -2.5 1.875 -2.5 C 1.5625 -2.5 1.3125 -2.34375 1.125 -2.03125 L 1.125 -2.4375 L 0.109375 -2.4375 L 0.109375 -2.3125 C 0.34375 -2.265625 0.390625 -2.21875 0.390625 -2 L 0.390625 -0.4375 C 0.390625 -0.21875 0.34375 -0.171875 0.109375 -0.125 L 0.109375 0 L 1.390625 0 L 1.390625 -0.125 C 1.1875 -0.140625 1.125 -0.234375 1.125 -0.421875 L 1.125 -1.84375 C 1.125 -1.859375 1.15625 -1.90625 1.21875 -1.96875 C 1.328125 -2.078125 1.453125 -2.140625 1.578125 -2.140625 C 1.765625 -2.140625 1.859375 -2 1.859375 -1.703125 L 1.859375 -0.421875 C 1.84375 -0.234375 1.78125 -0.140625 1.609375 -0.125 L 1.609375 0 L 2.84375 0 Z "/>
</g>
<g id="glyph-0-3">
<path d="M 2.8125 -0.234375 C 2.578125 -0.25 2.515625 -0.3125 2.515625 -0.53125 L 2.515625 -3.5625 L 1.375 -3.5625 L 1.375 -3.4375 C 1.71875 -3.421875 1.765625 -3.390625 1.78125 -3.140625 L 1.78125 -2.171875 C 1.546875 -2.40625 1.390625 -2.5 1.140625 -2.5 C 0.5625 -2.5 0.125 -1.9375 0.125 -1.171875 C 0.125 -0.4375 0.53125 0.078125 1.09375 0.078125 C 1.375 0.078125 1.546875 -0.015625 1.796875 -0.28125 L 1.796875 0.0625 C 2.03125 0 2.171875 -0.03125 2.5 -0.0625 L 2.8125 -0.109375 Z M 1.78125 -0.59375 C 1.78125 -0.5625 1.71875 -0.46875 1.65625 -0.40625 C 1.546875 -0.28125 1.4375 -0.21875 1.328125 -0.21875 C 1.046875 -0.21875 0.90625 -0.53125 0.90625 -1.203125 C 0.90625 -1.890625 1.0625 -2.203125 1.359375 -2.203125 C 1.53125 -2.203125 1.703125 -2.078125 1.78125 -1.875 Z "/>
</g>
</g>
</defs>
<g fill="rgb(96.078431%, 61.960784%, 4.313725%)" fill-opacity="1">
<use xlink:href="#glyph-0-0" x="30" y="23.567383"/>
<use xlink:href="#glyph-0-1" x="34" y="23.567383"/>
<use xlink:href="#glyph-0-2" x="37" y="23.567383"/>
<use xlink:href="#glyph-0-3" x="40" y="23.567383"/>
</g>
</svg>
