<?xml version="1.0" encoding="UTF-8"?>
<svg xmlns="http://www.w3.org/2000/svg" xmlns:xlink="http://www.w3.org/1999/xlink" width="1920" height="1080" viewBox="0 0 1920 1080">
<defs>
<g>
<g id="glyph-0-0">
<path d="M 4.65625 -4.421875 L 3.28125 -4.421875 L 3.28125 -4.296875 C 3.65625 -4.265625 3.765625 -4.203125 3.765625 -4.015625 C 3.765625 -3.90625 3.71875 -3.71875 3.640625 -3.515625 L 2.65625 -1.078125 L 1.65625 -3.328125 C 1.4375 -3.828125 1.375 -3.96875 1.375 -4.0625 C 1.375 -4.203125 1.46875 -4.265625 1.6875 -4.28125 C 1.71875 -4.28125 1.796875 -4.28125 1.875 -4.296875 L 1.875 -4.421875 L 0.109375 -4.421875 L 0.109375 -4.296875 C 0.4375 -4.28125 0.53125 -4.1875 0.8125 -3.59375 L 2.453125 0.078125 L 2.5625 0.078125 L 4.03125 -3.671875 C 4.25 -4.203125 4.328125 -4.265625 4.65625 -4.296875 Z "/>
</g>
<g id="glyph-0-1">
<path d="M 2.953125 -0.4375 C 2.828125 -0.34375 2.75 -0.3125 2.65625 -0.3125 C 2.5 -0.3125 2.453125 -0.40625 2.453125 -0.703125 L 2.453125 -2 C 2.453125 -2.34375 2.421875 -2.546875 2.328125 -2.703125 C 2.171875 -2.9375 1.890625 -3.0625 1.5 -3.0625 C 0.875 -3.0625 0.375 -2.734375 0.375 -2.328125 C 0.375 -2.171875 0.5 -2.03125 0.65625 -2.03125 C 0.828125 -2.03125 0.953125 -2.171875 0.953125 -2.3125 C 0.953125 -2.34375 0.953125 -2.375 0.953125 -2.421875 C 0.9375 -2.484375 0.921875 -2.53125 0.921875 -2.578125 C 0.921875 -2.765625 1.140625 -2.90625 1.40625 -2.90625 C 1.734375 -2.90625 1.921875 -2.71875 1.921875 -2.359375 L 1.921875 -1.953125 C 0.890625 -1.546875 0.78125 -1.484375 0.484375 -1.234375 C 0.34375 -1.09375 0.25 -0.875 0.25 -0.640625 C 0.25 -0.234375 0.546875 0.0625 0.953125 0.0625 C 1.234375 0.0625 1.515625 -0.078125 1.921875 -0.421875 C 1.953125 -0.0625 2.078125 0.0625 2.34375 0.0625 C 2.578125 0.0625 2.71875 -0.015625 2.953125 -0.265625 Z M 1.921875 -0.828125 C 1.921875 -0.625 1.875 -0.546875 1.734375 -0.46875 C 1.578125 -0.375 1.390625 -0.3125 1.25 -0.3125 C 1.015625 -0.3125 0.828125 -0.546875 0.828125 -0.828125 L 0.828125 -0.859375 C 0.84375 -1.265625 1.140625 -1.515625 1.921875 -1.78125 Z "/>
</g>
<g id="glyph-0-2">
<path d="M 0.140625 0 L 1.71875 0 L 1.71875 -0.09375 C 1.296875 -0.125 1.21875 -0.1875 1.21875 -0.5625 L 1.21875 -4.546875 L 1.1875 -4.5625 C 0.84375 -4.453125 0.59375 -4.375 0.125 -4.265625 L 0.125 -4.15625 L 0.171875 -4.15625 C 0.234375 -4.15625 0.3125 -4.171875 0.375 -4.171875 C 0.59375 -4.171875 0.65625 -4.078125 0.65625 -3.765625 L 0.65625 -0.578125 C 0.640625 -0.21875 0.546875 -0.125 0.140625 -0.09375 Z "/>
</g>
<g id="glyph-0-3">
<path d="M 3.203125 -0.328125 L 3.15625 -0.328125 C 2.828125 -0.34375 2.78125 -0.40625 2.78125 -0.71875 L 2.78125 -3 L 1.734375 -3 L 1.734375 -2.890625 C 2.140625 -2.875 2.21875 -2.796875 2.21875 -2.46875 L 2.21875 -0.90625 C 2.21875 -0.71875 2.1875 -0.625 2.09375 -0.546875 C 1.921875 -0.40625 1.703125 -0.3125 1.515625 -0.3125 C 1.25 -0.3125 1.03125 -0.546875 1.03125 -0.828125 L 1.03125 -3 L 0.0625 -3 L 0.0625 -2.90625 C 0.375 -2.890625 0.46875 -2.796875 0.46875 -2.484375 L 0.46875 -0.796875 C 0.46875 -0.28125 0.796875 0.0625 1.28125 0.0625 C 1.53125 0.0625 1.78125 -0.046875 1.96875 -0.21875 L 2.25 -0.5 L 2.25 0.046875 L 2.28125 0.0625 C 2.609375 -0.078125 2.859375 -0.140625 3.203125 -0.234375 Z "/>
</g>
<g id="glyph-0-4">
<path d="M 2.71875 -1.09375 C 2.40625 -0.59375 2.109375 -0.390625 1.6875 -0.390625 C 1.3125 -0.390625 1.015625 -0.59375 0.828125 -0.96875 C 0.703125 -1.21875 0.65625 -1.4375 0.640625 -1.84375 L 2.703125 -1.84375 C 2.65625 -2.28125 2.578125 -2.46875 2.421875 -2.6875 C 2.21875 -2.921875 1.90625 -3.0625 1.5625 -3.0625 C 1.234375 -3.0625 0.90625 -2.953125 0.65625 -2.71875 C 0.34375 -2.453125 0.171875 -1.96875 0.171875 -1.421875 C 0.171875 -0.5 0.640625 0.0625 1.421875 0.0625 C 2.046875 0.0625 2.546875 -0.328125 2.828125 -1.046875 Z M 0.65625 -2.0625 C 0.734375 -2.578125 0.953125 -2.828125 1.375 -2.828125 C 1.78125 -2.828125 1.9375 -2.640625 2.015625 -2.0625 Z "/>
</g>
<g id="glyph-0-5">
</g>
<g id="glyph-0-6">
<path d="M 4.703125 -0.125 C 4.40625 -0.140625 4.34375 -0.21875 4.109375 -0.703125 L 2.453125 -4.5 L 2.3125 -4.5 L 0.921875 -1.21875 C 0.5 -0.25 0.421875 -0.140625 0.09375 -0.125 L 0.09375 0 L 1.421875 0 L 1.421875 -0.125 C 1.09375 -0.125 0.96875 -0.203125 0.96875 -0.40625 C 0.96875 -0.484375 0.984375 -0.578125 1.015625 -0.65625 L 1.328125 -1.4375 L 3.078125 -1.4375 L 3.34375 -0.796875 C 3.421875 -0.625 3.46875 -0.453125 3.46875 -0.359375 C 3.46875 -0.1875 3.359375 -0.140625 3.015625 -0.125 L 3.015625 0 L 4.703125 0 Z M 1.4375 -1.71875 L 2.203125 -3.546875 L 2.984375 -1.71875 Z "/>
</g>
<g id="glyph-0-7">
<path d="M 3.28125 -0.390625 C 3.1875 -0.375 3.15625 -0.375 3.125 -0.375 C 2.890625 -0.375 2.828125 -0.453125 2.828125 -0.765625 L 2.828125 -4.546875 L 2.796875 -4.5625 C 2.484375 -4.453125 2.25 -4.375 1.8125 -4.265625 L 1.8125 -4.15625 C 1.875 -4.15625 1.90625 -4.15625 1.96875 -4.15625 C 2.203125 -4.15625 2.265625 -4.09375 2.265625 -3.828125 L 2.265625 -2.78125 C 2.015625 -3 1.828125 -3.0625 1.5625 -3.0625 C 0.796875 -3.0625 0.1875 -2.3125 0.1875 -1.375 C 0.1875 -0.515625 0.671875 0.0625 1.421875 0.0625 C 1.78125 0.0625 2.046875 -0.0625 2.265625 -0.375 L 2.265625 0.046875 L 2.296875 0.0625 L 3.28125 -0.28125 Z M 2.265625 -0.6875 C 2.265625 -0.640625 2.21875 -0.546875 2.15625 -0.484375 C 2.046875 -0.34375 1.875 -0.28125 1.671875 -0.28125 C 1.109375 -0.28125 0.75 -0.8125 0.75 -1.640625 C 0.75 -2.390625 1.078125 -2.875 1.59375 -2.875 C 1.953125 -2.875 2.265625 -2.5625 2.265625 -2.21875 Z "/>
</g>
</g>
</defs>
<g fill="rgb(96.862745%, 85.098039%, 43.529412%)" fill-opacity="1">
<use xlink:href="#glyph-0-0" x="30" y="24.553711"/>
<use xlink:href="#glyph-0-1" x="34" y="24.553711"/>
<use xlink:href="#glyph-0-2" x="37" y="24.553711"/>
<use xlink:href="#glyph-0-3" x="39" y="24.553711"/>
<use xlink:href="#glyph-0-4" x="42" y="24.553711"/>
<use xlink:href="#glyph-0-5" x="45" y="24.553711"/>
<use xlink:href="#glyph-0-6" x="47" y="24.553711"/>
<use xlink:href="#glyph-0-7" x="52" y="24.553711"/>
<use xlink:href="#glyph-0-7" x="55" y="24.553711"/>
<use xlink:href="#glyph-0-4" x="58" y="24.553711"/>
<use xlink:href="#glyph-0-7" x="61" y="24.553711"/>
</g>
</svg>
