<?xml version="1.0" encoding="UTF-8"?>
<svg xmlns="http://www.w3.org/2000/svg" xmlns:xlink="http://www.w3.org/1999/xlink" width="1920" height="1080" viewBox="0 0 1920 1080">
<defs>
<g>
<g id="glyph-0-0">
<path d="M 0.21875 0.09375 C 1.234375 -0.046875 1.71875 -0.234375 2.28125 -0.65625 C 3.03125 -1.203125 3.421875 -1.984375 3.421875 -2.90625 C 3.421875 -4.15625 2.75 -4.96875 1.734375 -4.96875 C 0.84375 -4.96875 0.1875 -4.25 0.1875 -3.265625 C 0.1875 -2.40625 0.71875 -1.828125 1.5 -1.828125 C 1.78125 -1.828125 1.953125 -1.875 2.15625 -1.96875 C 1.84375 -0.875 1.265625 -0.296875 0.21875 -0.09375 Z M 1.71875 -4.765625 C 1.90625 -4.765625 2.015625 -4.703125 2.109375 -4.53125 C 2.21875 -4.328125 2.28125 -3.8125 2.28125 -3.3125 C 2.28125 -3.109375 2.28125 -2.875 2.25 -2.5625 C 2.234375 -2.46875 2.234375 -2.390625 2.234375 -2.375 C 2.21875 -2.28125 2.21875 -2.234375 2.1875 -2.21875 C 2.140625 -2.1875 2 -2.15625 1.90625 -2.15625 C 1.453125 -2.15625 1.28125 -2.578125 1.28125 -3.71875 C 1.28125 -4.5625 1.375 -4.765625 1.71875 -4.765625 Z "/>
</g>
<g id="glyph-0-1">
<path d="M 0.40625 1.296875 C 1.25 0.8125 1.609375 0.34375 1.609375 -0.28125 C 1.609375 -0.78125 1.3125 -1.125 0.875 -1.125 C 0.515625 -1.125 0.28125 -0.890625 0.28125 -0.515625 C 0.28125 -0.1875 0.484375 0.046875 0.8125 0.046875 C 0.84375 0.046875 0.890625 0.046875 0.9375 0.03125 C 0.953125 0.03125 0.96875 0.03125 0.984375 0.03125 C 1.0625 0.03125 1.125 0.09375 1.125 0.1875 C 1.125 0.46875 0.875 0.765625 0.328125 1.140625 Z "/>
</g>
</g>
</defs>
<g fill="rgb(100%, 100%, 100%)" fill-opacity="1">
<use xlink:href="#glyph-0-0" x="30" y="24.882812"/>
<use xlink:href="#glyph-0-1" x="34" y="24.882812"/>
<use xlink:href="#glyph-0-0" x="36" y="24.882812"/>
<use xlink:href="#glyph-0-0" x="40" y="24.882812"/>
<use xlink:href="#glyph-0-0" x="44" y="24.882812"/>
</g>
</svg>
