<?xml version="1.0" encoding="UTF-8"?>
<svg xmlns="http://www.w3.org/2000/svg" xmlns:xlink="http://www.w3.org/1999/xlink" width="1920" height="1080" viewBox="0 0 1920 1080">
<defs>
<g>
<g id="glyph-0-0">
<path d="M 3.015625 -1.46875 L 2.359375 -1.46875 L 2.359375 -4.3125 L 2.078125 -4.3125 L 0.078125 -1.46875 L 0.078125 -1.0625 L 1.875 -1.0625 L 1.875 0 L 2.359375 0 L 2.359375 -1.0625 L 3.015625 -1.0625 Z M 1.859375 -1.46875 L 0.328125 -1.46875 L 1.859375 -3.671875 Z "/>
</g>
<g id="glyph-0-1">
<path d="M 1.625 -4.3125 C 1.265625 -4.3125 1 -4.21875 0.765625 -3.984375 C 0.390625 -3.625 0.15625 -2.890625 0.15625 -2.140625 C 0.15625 -1.4375 0.359375 -0.703125 0.671875 -0.34375 C 0.90625 -0.0625 1.234375 0.09375 1.59375 0.09375 C 1.921875 0.09375 2.203125 -0.015625 2.421875 -0.25 C 2.796875 -0.59375 3.046875 -1.328125 3.046875 -2.109375 C 3.046875 -3.421875 2.453125 -4.3125 1.625 -4.3125 Z M 1.609375 -4.15625 C 2.140625 -4.15625 2.421875 -3.4375 2.421875 -2.09375 C 2.421875 -0.765625 2.140625 -0.078125 1.59375 -0.078125 C 1.046875 -0.078125 0.765625 -0.765625 0.765625 -2.09375 C 0.765625 -3.453125 1.046875 -4.15625 1.609375 -4.15625 Z "/>
</g>
<g id="glyph-0-2">
<path d="M 0.53125 0.90625 C 0.953125 0.6875 1.25 0.296875 1.25 -0.078125 C 1.25 -0.40625 1.015625 -0.65625 0.734375 -0.65625 C 0.515625 -0.65625 0.359375 -0.5 0.359375 -0.28125 C 0.359375 -0.078125 0.5 0.03125 0.734375 0.03125 C 0.78125 0.03125 0.828125 0.03125 0.859375 0.03125 C 0.890625 0.015625 0.90625 0.015625 0.90625 0.015625 C 0.953125 0.015625 1 0.046875 1 0.109375 C 1 0.3125 0.8125 0.546875 0.46875 0.78125 Z "/>
</g>
</g>
</defs>
<g fill="rgb(100%, 100%, 100%)" fill-opacity="1">
<use xlink:href="#glyph-0-0" x="30" y="24.364258"/>
<use xlink:href="#glyph-0-1" x="33" y="24.364258"/>
<use xlink:href="#glyph-0-2" x="36" y="24.364258"/>
<use xlink:href="#glyph-0-1" x="38" y="24.364258"/>
<use xlink:href="#glyph-0-1" x="41" y="24.364258"/>
<use xlink:href="#glyph-0-1" x="44" y="24.364258"/>
</g>
</svg>
